<?xml version="1.0" encoding="utf-8" standalone="no"?>
<!-- Creator: Esri ArcMap 10.2.1.3497 -->
<!DOCTYPE svg PUBLIC "-//W3C//DTD SVG 1.1//EN"  "http://www.w3.org/Graphics/SVG/1.1/DTD/svg11.dtd">
<svg width="782.98583pt" height="440.24882pt" viewBox="0 0 782.98583 440.24882" enable-background="new 0 0 782.98583 440.24882"
	version="1.1" xmlns="http://www.w3.org/2000/svg" xmlns:xlink="http://www.w3.org/1999/xlink" >
	<g id="Layers">
		<g id="sao_carlos">
			<clipPath id="SVG_CP_1">
				<path d="M0,440.24882L0,0L782.98583,0L782.98583,440.24882L0,440.24882z"/>
			</clipPath>
			<path clip-path="url(#SVG_CP_1)" fill="#004DA8" fill-rule="evenodd" stroke="none" d="M428.91374,168.51988L427.23361,174.04119
				L422.19321,186.52414L417.87287,189.64488L416.67278,196.84658L413.79255,204.28835L416.19274,211.97016L415.47268,215.81107
				L408.75215,222.53266L409.95225,229.25425L407.07202,234.29545L411.15234,237.8963L411.15234,240.29687L416.43276,244.61789L
				418.11289,248.93891L421.47316,250.37925L422.43323,258.30113L424.83342,263.58238L424.35338,271.50425L422.19321,274.62499L
				422.19321,278.4659L430.11384,285.90766L431.55395,289.26846L435.39425,291.18891L431.55395,295.02982L432.99406,298.63067L426.03351,303.67186
				L424.35338,307.27272L425.31346,309.91334L422.67325,317.3551L418.35291,316.63493L408.0321,320.7159L408.99217,326.47726L403.95178,332.71874
				L400.59151,334.63919L400.35149,340.64061L395.3111,342.32101L390.2707,340.64061L386.19038,343.52129L381.39,343.76135L378.74979,341.8409
				L374.90949,344.48152L369.62908,342.32101L364.58868,344.24146L358.82823,341.12073L356.42804,341.12073L353.06777,336.07953
				L353.78783,333.91902L345.62719,325.99715L336.50647,328.87783L332.66617,326.47726L327.86579,327.9176L325.70562,323.11647L
				319.46513,318.55539L314.66475,312.55397L310.82445,313.03408L307.46419,311.11363L301.46372,310.1534L297.62341,312.55397L290.90288,309.91334
				L289.22275,305.83238L291.62294,303.43181L294.74319,303.67186L296.42332,297.9105L306.50411,291.90908L309.86438,292.38919L
				318.02502,296.71022L322.34536,294.54971L326.90572,294.06959L327.86579,289.50851L333.14621,284.94743L334.3463,280.38635L338.42662,275.82527
				L339.3867,268.62357L343.227,266.223L344.66711,259.74147L348.74743,253.9801L348.02738,249.17897L345.86721,246.29829L354.98793,241.49715
				L356.42804,235.73579L354.50789,232.61505L353.30779,221.33238L340.10675,211.73011L337.46655,211.24999L336.74649,206.2088L
				345.86721,196.60653L345.86721,189.16477L341.06683,182.20312L337.94659,180.28266L342.26692,176.2017L348.74743,173.56107L355.46796,171.88068
				L357.1481,165.15909L357.86815,158.67755L360.74838,155.31676L363.86862,154.59659L367.46891,149.07528L371.30921,145.47443L
				375.14951,139.95312L376.10959,135.87215L379.94989,131.79119L378.98981,129.15056L381.14998,127.95028L383.31015,123.62926L
				390.99076,126.75L396.75121,130.5909L396.99123,134.43181L399.63144,137.07244L399.63144,143.31392L394.111,144.99431L395.79114,147.87499
				L391.95083,151.47585L399.39142,156.03693L399.39142,163.47869L405.63191,161.79829L409.47221,163.71874L411.8724,160.35795L
				416.67278,160.59801L423.39331,164.43891L425.07344,167.3196L428.91374,168.51988z"/>
			<path clip-path="url(#SVG_CP_1)" fill="none" stroke="#4065EB" stroke-width="0.48004" stroke-miterlimit="10" stroke-linecap="round" stroke-linejoin="round" d="
				M428.91374,168.51988L427.23361,174.04119L422.19321,186.52414L417.87287,189.64488L416.67278,196.84658L413.79255,204.28835
				L416.19274,211.97016L415.47268,215.81107L408.75215,222.53266L409.95225,229.25425L407.07202,234.29545L411.15234,237.8963L
				411.15234,240.29687L416.43276,244.61789L418.11289,248.93891L421.47316,250.37925L422.43323,258.30113L424.83342,263.58238L
				424.35338,271.50425L422.19321,274.62499L422.19321,278.4659L430.11384,285.90766L431.55395,289.26846L435.39425,291.18891L431.55395,295.02982
				L432.99406,298.63067L426.03351,303.67186L424.35338,307.27272L425.31346,309.91334L422.67325,317.3551L418.35291,316.63493L
				408.0321,320.7159L408.99217,326.47726L403.95178,332.71874L400.59151,334.63919L400.35149,340.64061L395.3111,342.32101L390.2707,340.64061
				L386.19038,343.52129L381.39,343.76135L378.74979,341.8409L374.90949,344.48152L369.62908,342.32101L364.58868,344.24146L358.82823,341.12073
				L356.42804,341.12073L353.06777,336.07953L353.78783,333.91902L345.62719,325.99715L336.50647,328.87783L332.66617,326.47726
				L327.86579,327.9176L325.70562,323.11647L319.46513,318.55539L314.66475,312.55397L310.82445,313.03408L307.46419,311.11363L
				301.46372,310.1534L297.62341,312.55397L290.90288,309.91334L289.22275,305.83238L291.62294,303.43181L294.74319,303.67186L296.42332,297.9105
				L306.50411,291.90908L309.86438,292.38919L318.02502,296.71022L322.34536,294.54971L326.90572,294.06959L327.86579,289.50851
				L333.14621,284.94743L334.3463,280.38635L338.42662,275.82527L339.3867,268.62357L343.227,266.223L344.66711,259.74147L348.74743,253.9801
				L348.02738,249.17897L345.86721,246.29829L354.98793,241.49715L356.42804,235.73579L354.50789,232.61505L353.30779,221.33238
				L340.10675,211.73011L337.46655,211.24999L336.74649,206.2088L345.86721,196.60653L345.86721,189.16477L341.06683,182.20312L
				337.94659,180.28266L342.26692,176.2017L348.74743,173.56107L355.46796,171.88068L357.1481,165.15909L357.86815,158.67755L360.74838,155.31676
				L363.86862,154.59659L367.46891,149.07528L371.30921,145.47443L375.14951,139.95312L376.10959,135.87215L379.94989,131.79119
				L378.98981,129.15056L381.14998,127.95028L383.31015,123.62926L390.99076,126.75L396.75121,130.5909L396.99123,134.43181L399.63144,137.07244
				L399.63144,143.31392L394.111,144.99431L395.79114,147.87499L391.95083,151.47585L399.39142,156.03693L399.39142,163.47869L405.63191,161.79829
				L409.47221,163.71874L411.8724,160.35795L416.67278,160.59801L423.39331,164.43891L425.07344,167.3196L428.91374,168.51988"/>
		</g>
	</g>
</svg>
