<?xml version="1.0" encoding="utf-8" standalone="no"?>
<!DOCTYPE svg PUBLIC "-//W3C//DTD SVG 1.1//EN"
  "http://www.w3.org/Graphics/SVG/1.1/DTD/svg11.dtd">
<!-- Created with matplotlib (https://matplotlib.org/) -->
<svg height="277.314375pt" version="1.1" viewBox="0 0 706.682187 277.314375" width="706.682187pt" xmlns="http://www.w3.org/2000/svg" xmlns:xlink="http://www.w3.org/1999/xlink">
 <defs>
  <style type="text/css">
*{stroke-linecap:butt;stroke-linejoin:round;}
  </style>
 </defs>
 <g id="figure_1">
  <g id="patch_1">
   <path d="M 0 277.314375 
L 706.682187 277.314375 
L 706.682187 0 
L 0 0 
z
" style="fill:#ffffff;"/>
  </g>
  <g id="axes_1">
   <g id="patch_2">
    <path d="M 185.632812 239.758125 
L 520.432812 239.758125 
L 520.432812 22.318125 
L 185.632812 22.318125 
z
" style="fill:#ffffff;"/>
   </g>
   <g id="patch_3">
    <path clip-path="url(#p67005bba36)" d="M 185.632812 23.99074 
L 504.489955 23.99074 
L 504.489955 30.681202 
L 185.632812 30.681202 
z
" style="fill:#3274a1;"/>
   </g>
   <g id="patch_4">
    <path clip-path="url(#p67005bba36)" d="M 185.632812 40.716894 
L 228.108094 40.716894 
L 228.108094 47.407356 
L 185.632812 47.407356 
z
" style="fill:#3274a1;"/>
   </g>
   <g id="patch_5">
    <path clip-path="url(#p67005bba36)" d="M 185.632812 57.443048 
L 396.371056 57.443048 
L 396.371056 64.13351 
L 185.632812 64.13351 
z
" style="fill:#3274a1;"/>
   </g>
   <g id="patch_6">
    <path clip-path="url(#p67005bba36)" d="M 185.632812 74.169202 
L 294.570794 74.169202 
L 294.570794 80.859663 
L 185.632812 80.859663 
z
" style="fill:#3274a1;"/>
   </g>
   <g id="patch_7">
    <path clip-path="url(#p67005bba36)" d="M 185.632812 90.895356 
L 185.866836 90.895356 
L 185.866836 97.585817 
L 185.632812 97.585817 
z
" style="fill:#3274a1;"/>
   </g>
   <g id="patch_8">
    <path clip-path="url(#p67005bba36)" d="M 185.632812 107.62151 
L 186.451895 107.62151 
L 186.451895 114.311971 
L 185.632812 114.311971 
z
" style="fill:#3274a1;"/>
   </g>
   <g id="patch_9">
    <path clip-path="url(#p67005bba36)" d="M 185.632812 124.347663 
L 194.408697 124.347663 
L 194.408697 131.038125 
L 185.632812 131.038125 
z
" style="fill:#3274a1;"/>
   </g>
   <g id="patch_10">
    <path clip-path="url(#p67005bba36)" d="M 185.632812 141.073817 
L 192.536508 141.073817 
L 192.536508 147.764279 
L 185.632812 147.764279 
z
" style="fill:#3274a1;"/>
   </g>
   <g id="patch_11">
    <path clip-path="url(#p67005bba36)" d="M 185.632812 157.799971 
L 193.121567 157.799971 
L 193.121567 164.490433 
L 185.632812 164.490433 
z
" style="fill:#3274a1;"/>
   </g>
   <g id="patch_12">
    <path clip-path="url(#p67005bba36)" d="M 185.632812 174.526125 
L 194.057662 174.526125 
L 194.057662 181.216587 
L 185.632812 181.216587 
z
" style="fill:#3274a1;"/>
   </g>
   <g id="patch_13">
    <path clip-path="url(#p67005bba36)" d="M 185.632812 191.252279 
L 193.472603 191.252279 
L 193.472603 197.94274 
L 185.632812 197.94274 
z
" style="fill:#3274a1;"/>
   </g>
   <g id="patch_14">
    <path clip-path="url(#p67005bba36)" d="M 185.632812 207.978433 
L 185.983848 207.978433 
L 185.983848 214.668894 
L 185.632812 214.668894 
z
" style="fill:#3274a1;"/>
   </g>
   <g id="patch_15">
    <path clip-path="url(#p67005bba36)" d="M 185.632812 224.704587 
L 185.749824 224.704587 
L 185.749824 231.395048 
L 185.632812 231.395048 
z
" style="fill:#3274a1;"/>
   </g>
   <g id="patch_16">
    <path clip-path="url(#p67005bba36)" d="M 185.632812 30.681202 
L 193.355591 30.681202 
L 193.355591 37.371663 
L 185.632812 37.371663 
z
" style="fill:#e1812c;"/>
   </g>
   <g id="patch_17">
    <path clip-path="url(#p67005bba36)" d="M 185.632812 47.407356 
L 187.505001 47.407356 
L 187.505001 54.097817 
L 185.632812 54.097817 
z
" style="fill:#e1812c;"/>
   </g>
   <g id="patch_18">
    <path clip-path="url(#p67005bba36)" d="M 185.632812 64.13351 
L 191.834438 64.13351 
L 191.834438 70.823971 
L 185.632812 70.823971 
z
" style="fill:#e1812c;"/>
   </g>
   <g id="patch_19">
    <path clip-path="url(#p67005bba36)" d="M 185.632812 80.859663 
L 187.856037 80.859663 
L 187.856037 87.550125 
L 185.632812 87.550125 
z
" style="fill:#e1812c;"/>
   </g>
   <g id="patch_20">
    <path clip-path="url(#p67005bba36)" d="z
" style="fill:#e1812c;"/>
   </g>
   <g id="patch_21">
    <path clip-path="url(#p67005bba36)" d="z
" style="fill:#e1812c;"/>
   </g>
   <g id="patch_22">
    <path clip-path="url(#p67005bba36)" d="M 185.632812 131.038125 
L 185.983848 131.038125 
L 185.983848 137.728587 
L 185.632812 137.728587 
z
" style="fill:#e1812c;"/>
   </g>
   <g id="patch_23">
    <path clip-path="url(#p67005bba36)" d="M 185.632812 147.764279 
L 185.983848 147.764279 
L 185.983848 154.45474 
L 185.632812 154.45474 
z
" style="fill:#e1812c;"/>
   </g>
   <g id="patch_24">
    <path clip-path="url(#p67005bba36)" d="M 185.632812 164.490433 
L 185.749824 164.490433 
L 185.749824 171.180894 
L 185.632812 171.180894 
z
" style="fill:#e1812c;"/>
   </g>
   <g id="patch_25">
    <path clip-path="url(#p67005bba36)" d="M 185.632812 181.216587 
L 185.866836 181.216587 
L 185.866836 187.907048 
L 185.632812 187.907048 
z
" style="fill:#e1812c;"/>
   </g>
   <g id="patch_26">
    <path clip-path="url(#p67005bba36)" d="z
" style="fill:#e1812c;"/>
   </g>
   <g id="patch_27">
    <path clip-path="url(#p67005bba36)" d="z
" style="fill:#e1812c;"/>
   </g>
   <g id="patch_28">
    <path clip-path="url(#p67005bba36)" d="z
" style="fill:#e1812c;"/>
   </g>
   <g id="matplotlib.axis_1">
    <g id="xtick_1">
     <g id="line2d_1">
      <defs>
       <path d="M 0 0 
L 0 3.5 
" id="m0c2d684740" style="stroke:#000000;stroke-width:0.8;"/>
      </defs>
      <g>
       <use style="stroke:#000000;stroke-width:0.8;" x="185.632812" xlink:href="#m0c2d684740" y="239.758125"/>
      </g>
     </g>
     <g id="text_1">
      <!-- 0 -->
      <defs>
       <path d="M 31.78125 66.40625 
Q 24.171875 66.40625 20.328125 58.90625 
Q 16.5 51.421875 16.5 36.375 
Q 16.5 21.390625 20.328125 13.890625 
Q 24.171875 6.390625 31.78125 6.390625 
Q 39.453125 6.390625 43.28125 13.890625 
Q 47.125 21.390625 47.125 36.375 
Q 47.125 51.421875 43.28125 58.90625 
Q 39.453125 66.40625 31.78125 66.40625 
z
M 31.78125 74.21875 
Q 44.046875 74.21875 50.515625 64.515625 
Q 56.984375 54.828125 56.984375 36.375 
Q 56.984375 17.96875 50.515625 8.265625 
Q 44.046875 -1.421875 31.78125 -1.421875 
Q 19.53125 -1.421875 13.0625 8.265625 
Q 6.59375 17.96875 6.59375 36.375 
Q 6.59375 54.828125 13.0625 64.515625 
Q 19.53125 74.21875 31.78125 74.21875 
z
" id="DejaVuSans-48"/>
      </defs>
      <g transform="translate(182.451562 254.356562)scale(0.1 -0.1)">
       <use xlink:href="#DejaVuSans-48"/>
      </g>
     </g>
    </g>
    <g id="xtick_2">
     <g id="line2d_2">
      <g>
       <use style="stroke:#000000;stroke-width:0.8;" x="244.13871" xlink:href="#m0c2d684740" y="239.758125"/>
      </g>
     </g>
     <g id="text_2">
      <!-- 500 -->
      <defs>
       <path d="M 10.796875 72.90625 
L 49.515625 72.90625 
L 49.515625 64.59375 
L 19.828125 64.59375 
L 19.828125 46.734375 
Q 21.96875 47.46875 24.109375 47.828125 
Q 26.265625 48.1875 28.421875 48.1875 
Q 40.625 48.1875 47.75 41.5 
Q 54.890625 34.8125 54.890625 23.390625 
Q 54.890625 11.625 47.5625 5.09375 
Q 40.234375 -1.421875 26.90625 -1.421875 
Q 22.3125 -1.421875 17.546875 -0.640625 
Q 12.796875 0.140625 7.71875 1.703125 
L 7.71875 11.625 
Q 12.109375 9.234375 16.796875 8.0625 
Q 21.484375 6.890625 26.703125 6.890625 
Q 35.15625 6.890625 40.078125 11.328125 
Q 45.015625 15.765625 45.015625 23.390625 
Q 45.015625 31 40.078125 35.4375 
Q 35.15625 39.890625 26.703125 39.890625 
Q 22.75 39.890625 18.8125 39.015625 
Q 14.890625 38.140625 10.796875 36.28125 
z
" id="DejaVuSans-53"/>
      </defs>
      <g transform="translate(234.59496 254.356562)scale(0.1 -0.1)">
       <use xlink:href="#DejaVuSans-53"/>
       <use x="63.623047" xlink:href="#DejaVuSans-48"/>
       <use x="127.246094" xlink:href="#DejaVuSans-48"/>
      </g>
     </g>
    </g>
    <g id="xtick_3">
     <g id="line2d_3">
      <g>
       <use style="stroke:#000000;stroke-width:0.8;" x="302.644608" xlink:href="#m0c2d684740" y="239.758125"/>
      </g>
     </g>
     <g id="text_3">
      <!-- 1000 -->
      <defs>
       <path d="M 12.40625 8.296875 
L 28.515625 8.296875 
L 28.515625 63.921875 
L 10.984375 60.40625 
L 10.984375 69.390625 
L 28.421875 72.90625 
L 38.28125 72.90625 
L 38.28125 8.296875 
L 54.390625 8.296875 
L 54.390625 0 
L 12.40625 0 
z
" id="DejaVuSans-49"/>
      </defs>
      <g transform="translate(289.919608 254.356562)scale(0.1 -0.1)">
       <use xlink:href="#DejaVuSans-49"/>
       <use x="63.623047" xlink:href="#DejaVuSans-48"/>
       <use x="127.246094" xlink:href="#DejaVuSans-48"/>
       <use x="190.869141" xlink:href="#DejaVuSans-48"/>
      </g>
     </g>
    </g>
    <g id="xtick_4">
     <g id="line2d_4">
      <g>
       <use style="stroke:#000000;stroke-width:0.8;" x="361.150506" xlink:href="#m0c2d684740" y="239.758125"/>
      </g>
     </g>
     <g id="text_4">
      <!-- 1500 -->
      <g transform="translate(348.425506 254.356562)scale(0.1 -0.1)">
       <use xlink:href="#DejaVuSans-49"/>
       <use x="63.623047" xlink:href="#DejaVuSans-53"/>
       <use x="127.246094" xlink:href="#DejaVuSans-48"/>
       <use x="190.869141" xlink:href="#DejaVuSans-48"/>
      </g>
     </g>
    </g>
    <g id="xtick_5">
     <g id="line2d_5">
      <g>
       <use style="stroke:#000000;stroke-width:0.8;" x="419.656404" xlink:href="#m0c2d684740" y="239.758125"/>
      </g>
     </g>
     <g id="text_5">
      <!-- 2000 -->
      <defs>
       <path d="M 19.1875 8.296875 
L 53.609375 8.296875 
L 53.609375 0 
L 7.328125 0 
L 7.328125 8.296875 
Q 12.9375 14.109375 22.625 23.890625 
Q 32.328125 33.6875 34.8125 36.53125 
Q 39.546875 41.84375 41.421875 45.53125 
Q 43.3125 49.21875 43.3125 52.78125 
Q 43.3125 58.59375 39.234375 62.25 
Q 35.15625 65.921875 28.609375 65.921875 
Q 23.96875 65.921875 18.8125 64.3125 
Q 13.671875 62.703125 7.8125 59.421875 
L 7.8125 69.390625 
Q 13.765625 71.78125 18.9375 73 
Q 24.125 74.21875 28.421875 74.21875 
Q 39.75 74.21875 46.484375 68.546875 
Q 53.21875 62.890625 53.21875 53.421875 
Q 53.21875 48.921875 51.53125 44.890625 
Q 49.859375 40.875 45.40625 35.40625 
Q 44.1875 33.984375 37.640625 27.21875 
Q 31.109375 20.453125 19.1875 8.296875 
z
" id="DejaVuSans-50"/>
      </defs>
      <g transform="translate(406.931404 254.356562)scale(0.1 -0.1)">
       <use xlink:href="#DejaVuSans-50"/>
       <use x="63.623047" xlink:href="#DejaVuSans-48"/>
       <use x="127.246094" xlink:href="#DejaVuSans-48"/>
       <use x="190.869141" xlink:href="#DejaVuSans-48"/>
      </g>
     </g>
    </g>
    <g id="xtick_6">
     <g id="line2d_6">
      <g>
       <use style="stroke:#000000;stroke-width:0.8;" x="478.162301" xlink:href="#m0c2d684740" y="239.758125"/>
      </g>
     </g>
     <g id="text_6">
      <!-- 2500 -->
      <g transform="translate(465.437301 254.356562)scale(0.1 -0.1)">
       <use xlink:href="#DejaVuSans-50"/>
       <use x="63.623047" xlink:href="#DejaVuSans-53"/>
       <use x="127.246094" xlink:href="#DejaVuSans-48"/>
       <use x="190.869141" xlink:href="#DejaVuSans-48"/>
      </g>
     </g>
    </g>
    <g id="text_7">
     <!-- Crimes Occurences -->
     <defs>
      <path d="M 64.40625 67.28125 
L 64.40625 56.890625 
Q 59.421875 61.53125 53.78125 63.8125 
Q 48.140625 66.109375 41.796875 66.109375 
Q 29.296875 66.109375 22.65625 58.46875 
Q 16.015625 50.828125 16.015625 36.375 
Q 16.015625 21.96875 22.65625 14.328125 
Q 29.296875 6.6875 41.796875 6.6875 
Q 48.140625 6.6875 53.78125 8.984375 
Q 59.421875 11.28125 64.40625 15.921875 
L 64.40625 5.609375 
Q 59.234375 2.09375 53.4375 0.328125 
Q 47.65625 -1.421875 41.21875 -1.421875 
Q 24.65625 -1.421875 15.125 8.703125 
Q 5.609375 18.84375 5.609375 36.375 
Q 5.609375 53.953125 15.125 64.078125 
Q 24.65625 74.21875 41.21875 74.21875 
Q 47.75 74.21875 53.53125 72.484375 
Q 59.328125 70.75 64.40625 67.28125 
z
" id="DejaVuSans-67"/>
      <path d="M 41.109375 46.296875 
Q 39.59375 47.171875 37.8125 47.578125 
Q 36.03125 48 33.890625 48 
Q 26.265625 48 22.1875 43.046875 
Q 18.109375 38.09375 18.109375 28.8125 
L 18.109375 0 
L 9.078125 0 
L 9.078125 54.6875 
L 18.109375 54.6875 
L 18.109375 46.1875 
Q 20.953125 51.171875 25.484375 53.578125 
Q 30.03125 56 36.53125 56 
Q 37.453125 56 38.578125 55.875 
Q 39.703125 55.765625 41.0625 55.515625 
z
" id="DejaVuSans-114"/>
      <path d="M 9.421875 54.6875 
L 18.40625 54.6875 
L 18.40625 0 
L 9.421875 0 
z
M 9.421875 75.984375 
L 18.40625 75.984375 
L 18.40625 64.59375 
L 9.421875 64.59375 
z
" id="DejaVuSans-105"/>
      <path d="M 52 44.1875 
Q 55.375 50.25 60.0625 53.125 
Q 64.75 56 71.09375 56 
Q 79.640625 56 84.28125 50.015625 
Q 88.921875 44.046875 88.921875 33.015625 
L 88.921875 0 
L 79.890625 0 
L 79.890625 32.71875 
Q 79.890625 40.578125 77.09375 44.375 
Q 74.3125 48.1875 68.609375 48.1875 
Q 61.625 48.1875 57.5625 43.546875 
Q 53.515625 38.921875 53.515625 30.90625 
L 53.515625 0 
L 44.484375 0 
L 44.484375 32.71875 
Q 44.484375 40.625 41.703125 44.40625 
Q 38.921875 48.1875 33.109375 48.1875 
Q 26.21875 48.1875 22.15625 43.53125 
Q 18.109375 38.875 18.109375 30.90625 
L 18.109375 0 
L 9.078125 0 
L 9.078125 54.6875 
L 18.109375 54.6875 
L 18.109375 46.1875 
Q 21.1875 51.21875 25.484375 53.609375 
Q 29.78125 56 35.6875 56 
Q 41.65625 56 45.828125 52.96875 
Q 50 49.953125 52 44.1875 
z
" id="DejaVuSans-109"/>
      <path d="M 56.203125 29.59375 
L 56.203125 25.203125 
L 14.890625 25.203125 
Q 15.484375 15.921875 20.484375 11.0625 
Q 25.484375 6.203125 34.421875 6.203125 
Q 39.59375 6.203125 44.453125 7.46875 
Q 49.3125 8.734375 54.109375 11.28125 
L 54.109375 2.78125 
Q 49.265625 0.734375 44.1875 -0.34375 
Q 39.109375 -1.421875 33.890625 -1.421875 
Q 20.796875 -1.421875 13.15625 6.1875 
Q 5.515625 13.8125 5.515625 26.8125 
Q 5.515625 40.234375 12.765625 48.109375 
Q 20.015625 56 32.328125 56 
Q 43.359375 56 49.78125 48.890625 
Q 56.203125 41.796875 56.203125 29.59375 
z
M 47.21875 32.234375 
Q 47.125 39.59375 43.09375 43.984375 
Q 39.0625 48.390625 32.421875 48.390625 
Q 24.90625 48.390625 20.390625 44.140625 
Q 15.875 39.890625 15.1875 32.171875 
z
" id="DejaVuSans-101"/>
      <path d="M 44.28125 53.078125 
L 44.28125 44.578125 
Q 40.484375 46.53125 36.375 47.5 
Q 32.28125 48.484375 27.875 48.484375 
Q 21.1875 48.484375 17.84375 46.4375 
Q 14.5 44.390625 14.5 40.28125 
Q 14.5 37.15625 16.890625 35.375 
Q 19.28125 33.59375 26.515625 31.984375 
L 29.59375 31.296875 
Q 39.15625 29.25 43.1875 25.515625 
Q 47.21875 21.78125 47.21875 15.09375 
Q 47.21875 7.46875 41.1875 3.015625 
Q 35.15625 -1.421875 24.609375 -1.421875 
Q 20.21875 -1.421875 15.453125 -0.5625 
Q 10.6875 0.296875 5.421875 2 
L 5.421875 11.28125 
Q 10.40625 8.6875 15.234375 7.390625 
Q 20.0625 6.109375 24.8125 6.109375 
Q 31.15625 6.109375 34.5625 8.28125 
Q 37.984375 10.453125 37.984375 14.40625 
Q 37.984375 18.0625 35.515625 20.015625 
Q 33.0625 21.96875 24.703125 23.78125 
L 21.578125 24.515625 
Q 13.234375 26.265625 9.515625 29.90625 
Q 5.8125 33.546875 5.8125 39.890625 
Q 5.8125 47.609375 11.28125 51.796875 
Q 16.75 56 26.8125 56 
Q 31.78125 56 36.171875 55.265625 
Q 40.578125 54.546875 44.28125 53.078125 
z
" id="DejaVuSans-115"/>
      <path id="DejaVuSans-32"/>
      <path d="M 39.40625 66.21875 
Q 28.65625 66.21875 22.328125 58.203125 
Q 16.015625 50.203125 16.015625 36.375 
Q 16.015625 22.609375 22.328125 14.59375 
Q 28.65625 6.59375 39.40625 6.59375 
Q 50.140625 6.59375 56.421875 14.59375 
Q 62.703125 22.609375 62.703125 36.375 
Q 62.703125 50.203125 56.421875 58.203125 
Q 50.140625 66.21875 39.40625 66.21875 
z
M 39.40625 74.21875 
Q 54.734375 74.21875 63.90625 63.9375 
Q 73.09375 53.65625 73.09375 36.375 
Q 73.09375 19.140625 63.90625 8.859375 
Q 54.734375 -1.421875 39.40625 -1.421875 
Q 24.03125 -1.421875 14.8125 8.828125 
Q 5.609375 19.09375 5.609375 36.375 
Q 5.609375 53.65625 14.8125 63.9375 
Q 24.03125 74.21875 39.40625 74.21875 
z
" id="DejaVuSans-79"/>
      <path d="M 48.78125 52.59375 
L 48.78125 44.1875 
Q 44.96875 46.296875 41.140625 47.34375 
Q 37.3125 48.390625 33.40625 48.390625 
Q 24.65625 48.390625 19.8125 42.84375 
Q 14.984375 37.3125 14.984375 27.296875 
Q 14.984375 17.28125 19.8125 11.734375 
Q 24.65625 6.203125 33.40625 6.203125 
Q 37.3125 6.203125 41.140625 7.25 
Q 44.96875 8.296875 48.78125 10.40625 
L 48.78125 2.09375 
Q 45.015625 0.34375 40.984375 -0.53125 
Q 36.96875 -1.421875 32.421875 -1.421875 
Q 20.0625 -1.421875 12.78125 6.34375 
Q 5.515625 14.109375 5.515625 27.296875 
Q 5.515625 40.671875 12.859375 48.328125 
Q 20.21875 56 33.015625 56 
Q 37.15625 56 41.109375 55.140625 
Q 45.0625 54.296875 48.78125 52.59375 
z
" id="DejaVuSans-99"/>
      <path d="M 8.5 21.578125 
L 8.5 54.6875 
L 17.484375 54.6875 
L 17.484375 21.921875 
Q 17.484375 14.15625 20.5 10.265625 
Q 23.53125 6.390625 29.59375 6.390625 
Q 36.859375 6.390625 41.078125 11.03125 
Q 45.3125 15.671875 45.3125 23.6875 
L 45.3125 54.6875 
L 54.296875 54.6875 
L 54.296875 0 
L 45.3125 0 
L 45.3125 8.40625 
Q 42.046875 3.421875 37.71875 1 
Q 33.40625 -1.421875 27.6875 -1.421875 
Q 18.265625 -1.421875 13.375 4.4375 
Q 8.5 10.296875 8.5 21.578125 
z
M 31.109375 56 
z
" id="DejaVuSans-117"/>
      <path d="M 54.890625 33.015625 
L 54.890625 0 
L 45.90625 0 
L 45.90625 32.71875 
Q 45.90625 40.484375 42.875 44.328125 
Q 39.84375 48.1875 33.796875 48.1875 
Q 26.515625 48.1875 22.3125 43.546875 
Q 18.109375 38.921875 18.109375 30.90625 
L 18.109375 0 
L 9.078125 0 
L 9.078125 54.6875 
L 18.109375 54.6875 
L 18.109375 46.1875 
Q 21.34375 51.125 25.703125 53.5625 
Q 30.078125 56 35.796875 56 
Q 45.21875 56 50.046875 50.171875 
Q 54.890625 44.34375 54.890625 33.015625 
z
" id="DejaVuSans-110"/>
     </defs>
     <g transform="translate(304.623437 268.034687)scale(0.1 -0.1)">
      <use xlink:href="#DejaVuSans-67"/>
      <use x="69.824219" xlink:href="#DejaVuSans-114"/>
      <use x="110.9375" xlink:href="#DejaVuSans-105"/>
      <use x="138.720703" xlink:href="#DejaVuSans-109"/>
      <use x="236.132812" xlink:href="#DejaVuSans-101"/>
      <use x="297.65625" xlink:href="#DejaVuSans-115"/>
      <use x="349.755859" xlink:href="#DejaVuSans-32"/>
      <use x="381.542969" xlink:href="#DejaVuSans-79"/>
      <use x="460.253906" xlink:href="#DejaVuSans-99"/>
      <use x="515.234375" xlink:href="#DejaVuSans-99"/>
      <use x="570.214844" xlink:href="#DejaVuSans-117"/>
      <use x="633.59375" xlink:href="#DejaVuSans-114"/>
      <use x="674.675781" xlink:href="#DejaVuSans-101"/>
      <use x="736.199219" xlink:href="#DejaVuSans-110"/>
      <use x="799.578125" xlink:href="#DejaVuSans-99"/>
      <use x="854.558594" xlink:href="#DejaVuSans-101"/>
      <use x="916.082031" xlink:href="#DejaVuSans-115"/>
     </g>
    </g>
   </g>
   <g id="matplotlib.axis_2">
    <g id="ytick_1">
     <g id="line2d_7">
      <defs>
       <path d="M 0 0 
L -3.5 0 
" id="mb83d5de03a" style="stroke:#000000;stroke-width:0.8;"/>
      </defs>
      <g>
       <use style="stroke:#000000;stroke-width:0.8;" x="185.632812" xlink:href="#mb83d5de03a" y="30.681202"/>
      </g>
     </g>
     <g id="text_8">
      <!-- VEICULO -->
      <defs>
       <path d="M 28.609375 0 
L 0.78125 72.90625 
L 11.078125 72.90625 
L 34.1875 11.53125 
L 57.328125 72.90625 
L 67.578125 72.90625 
L 39.796875 0 
z
" id="DejaVuSans-86"/>
       <path d="M 9.8125 72.90625 
L 55.90625 72.90625 
L 55.90625 64.59375 
L 19.671875 64.59375 
L 19.671875 43.015625 
L 54.390625 43.015625 
L 54.390625 34.71875 
L 19.671875 34.71875 
L 19.671875 8.296875 
L 56.78125 8.296875 
L 56.78125 0 
L 9.8125 0 
z
" id="DejaVuSans-69"/>
       <path d="M 9.8125 72.90625 
L 19.671875 72.90625 
L 19.671875 0 
L 9.8125 0 
z
" id="DejaVuSans-73"/>
       <path d="M 8.6875 72.90625 
L 18.609375 72.90625 
L 18.609375 28.609375 
Q 18.609375 16.890625 22.84375 11.734375 
Q 27.09375 6.59375 36.625 6.59375 
Q 46.09375 6.59375 50.34375 11.734375 
Q 54.59375 16.890625 54.59375 28.609375 
L 54.59375 72.90625 
L 64.5 72.90625 
L 64.5 27.390625 
Q 64.5 13.140625 57.4375 5.859375 
Q 50.390625 -1.421875 36.625 -1.421875 
Q 22.796875 -1.421875 15.734375 5.859375 
Q 8.6875 13.140625 8.6875 27.390625 
z
" id="DejaVuSans-85"/>
       <path d="M 9.8125 72.90625 
L 19.671875 72.90625 
L 19.671875 8.296875 
L 55.171875 8.296875 
L 55.171875 0 
L 9.8125 0 
z
" id="DejaVuSans-76"/>
      </defs>
      <g transform="translate(134.782813 34.480421)scale(0.1 -0.1)">
       <use xlink:href="#DejaVuSans-86"/>
       <use x="68.408203" xlink:href="#DejaVuSans-69"/>
       <use x="131.591797" xlink:href="#DejaVuSans-73"/>
       <use x="161.083984" xlink:href="#DejaVuSans-67"/>
       <use x="230.908203" xlink:href="#DejaVuSans-85"/>
       <use x="304.101562" xlink:href="#DejaVuSans-76"/>
       <use x="359.767578" xlink:href="#DejaVuSans-79"/>
      </g>
     </g>
    </g>
    <g id="ytick_2">
     <g id="line2d_8">
      <g>
       <use style="stroke:#000000;stroke-width:0.8;" x="185.632812" xlink:href="#mb83d5de03a" y="47.407356"/>
      </g>
     </g>
     <g id="text_9">
      <!-- OUTROS -->
      <defs>
       <path d="M -0.296875 72.90625 
L 61.375 72.90625 
L 61.375 64.59375 
L 35.5 64.59375 
L 35.5 0 
L 25.59375 0 
L 25.59375 64.59375 
L -0.296875 64.59375 
z
" id="DejaVuSans-84"/>
       <path d="M 44.390625 34.1875 
Q 47.5625 33.109375 50.5625 29.59375 
Q 53.5625 26.078125 56.59375 19.921875 
L 66.609375 0 
L 56 0 
L 46.6875 18.703125 
Q 43.0625 26.03125 39.671875 28.421875 
Q 36.28125 30.8125 30.421875 30.8125 
L 19.671875 30.8125 
L 19.671875 0 
L 9.8125 0 
L 9.8125 72.90625 
L 32.078125 72.90625 
Q 44.578125 72.90625 50.734375 67.671875 
Q 56.890625 62.453125 56.890625 51.90625 
Q 56.890625 45.015625 53.6875 40.46875 
Q 50.484375 35.9375 44.390625 34.1875 
z
M 19.671875 64.796875 
L 19.671875 38.921875 
L 32.078125 38.921875 
Q 39.203125 38.921875 42.84375 42.21875 
Q 46.484375 45.515625 46.484375 51.90625 
Q 46.484375 58.296875 42.84375 61.546875 
Q 39.203125 64.796875 32.078125 64.796875 
z
" id="DejaVuSans-82"/>
       <path d="M 53.515625 70.515625 
L 53.515625 60.890625 
Q 47.90625 63.578125 42.921875 64.890625 
Q 37.9375 66.21875 33.296875 66.21875 
Q 25.25 66.21875 20.875 63.09375 
Q 16.5 59.96875 16.5 54.203125 
Q 16.5 49.359375 19.40625 46.890625 
Q 22.3125 44.4375 30.421875 42.921875 
L 36.375 41.703125 
Q 47.40625 39.59375 52.65625 34.296875 
Q 57.90625 29 57.90625 20.125 
Q 57.90625 9.515625 50.796875 4.046875 
Q 43.703125 -1.421875 29.984375 -1.421875 
Q 24.8125 -1.421875 18.96875 -0.25 
Q 13.140625 0.921875 6.890625 3.21875 
L 6.890625 13.375 
Q 12.890625 10.015625 18.65625 8.296875 
Q 24.421875 6.59375 29.984375 6.59375 
Q 38.421875 6.59375 43.015625 9.90625 
Q 47.609375 13.234375 47.609375 19.390625 
Q 47.609375 24.75 44.3125 27.78125 
Q 41.015625 30.8125 33.5 32.328125 
L 27.484375 33.5 
Q 16.453125 35.6875 11.515625 40.375 
Q 6.59375 45.0625 6.59375 53.421875 
Q 6.59375 63.09375 13.40625 68.65625 
Q 20.21875 74.21875 32.171875 74.21875 
Q 37.3125 74.21875 42.625 73.28125 
Q 47.953125 72.359375 53.515625 70.515625 
z
" id="DejaVuSans-83"/>
      </defs>
      <g transform="translate(136.165625 51.206575)scale(0.1 -0.1)">
       <use xlink:href="#DejaVuSans-79"/>
       <use x="78.710938" xlink:href="#DejaVuSans-85"/>
       <use x="151.904297" xlink:href="#DejaVuSans-84"/>
       <use x="212.988281" xlink:href="#DejaVuSans-82"/>
       <use x="282.470703" xlink:href="#DejaVuSans-79"/>
       <use x="361.181641" xlink:href="#DejaVuSans-83"/>
      </g>
     </g>
    </g>
    <g id="ytick_3">
     <g id="line2d_9">
      <g>
       <use style="stroke:#000000;stroke-width:0.8;" x="185.632812" xlink:href="#mb83d5de03a" y="64.13351"/>
      </g>
     </g>
     <g id="text_10">
      <!-- TRANSEUNTE -->
      <defs>
       <path d="M 34.1875 63.1875 
L 20.796875 26.90625 
L 47.609375 26.90625 
z
M 28.609375 72.90625 
L 39.796875 72.90625 
L 67.578125 0 
L 57.328125 0 
L 50.6875 18.703125 
L 17.828125 18.703125 
L 11.1875 0 
L 0.78125 0 
z
" id="DejaVuSans-65"/>
       <path d="M 9.8125 72.90625 
L 23.09375 72.90625 
L 55.421875 11.921875 
L 55.421875 72.90625 
L 64.984375 72.90625 
L 64.984375 0 
L 51.703125 0 
L 19.390625 60.984375 
L 19.390625 0 
L 9.8125 0 
z
" id="DejaVuSans-78"/>
      </defs>
      <g transform="translate(111.367188 67.932728)scale(0.1 -0.1)">
       <use xlink:href="#DejaVuSans-84"/>
       <use x="61.083984" xlink:href="#DejaVuSans-82"/>
       <use x="130.503906" xlink:href="#DejaVuSans-65"/>
       <use x="198.912109" xlink:href="#DejaVuSans-78"/>
       <use x="273.716797" xlink:href="#DejaVuSans-83"/>
       <use x="337.193359" xlink:href="#DejaVuSans-69"/>
       <use x="400.376953" xlink:href="#DejaVuSans-85"/>
       <use x="473.570312" xlink:href="#DejaVuSans-78"/>
       <use x="548.375" xlink:href="#DejaVuSans-84"/>
       <use x="609.458984" xlink:href="#DejaVuSans-69"/>
      </g>
     </g>
    </g>
    <g id="ytick_4">
     <g id="line2d_10">
      <g>
       <use style="stroke:#000000;stroke-width:0.8;" x="185.632812" xlink:href="#mb83d5de03a" y="80.859663"/>
      </g>
     </g>
     <g id="text_11">
      <!-- ESTABELECIMENTO COMERCIAL -->
      <defs>
       <path d="M 19.671875 34.8125 
L 19.671875 8.109375 
L 35.5 8.109375 
Q 43.453125 8.109375 47.28125 11.40625 
Q 51.125 14.703125 51.125 21.484375 
Q 51.125 28.328125 47.28125 31.5625 
Q 43.453125 34.8125 35.5 34.8125 
z
M 19.671875 64.796875 
L 19.671875 42.828125 
L 34.28125 42.828125 
Q 41.5 42.828125 45.03125 45.53125 
Q 48.578125 48.25 48.578125 53.8125 
Q 48.578125 59.328125 45.03125 62.0625 
Q 41.5 64.796875 34.28125 64.796875 
z
M 9.8125 72.90625 
L 35.015625 72.90625 
Q 46.296875 72.90625 52.390625 68.21875 
Q 58.5 63.53125 58.5 54.890625 
Q 58.5 48.1875 55.375 44.234375 
Q 52.25 40.28125 46.1875 39.3125 
Q 53.46875 37.75 57.5 32.78125 
Q 61.53125 27.828125 61.53125 20.40625 
Q 61.53125 10.640625 54.890625 5.3125 
Q 48.25 0 35.984375 0 
L 9.8125 0 
z
" id="DejaVuSans-66"/>
       <path d="M 9.8125 72.90625 
L 24.515625 72.90625 
L 43.109375 23.296875 
L 61.8125 72.90625 
L 76.515625 72.90625 
L 76.515625 0 
L 66.890625 0 
L 66.890625 64.015625 
L 48.09375 14.015625 
L 38.1875 14.015625 
L 19.390625 64.015625 
L 19.390625 0 
L 9.8125 0 
z
" id="DejaVuSans-77"/>
      </defs>
      <g transform="translate(19.351562 84.658882)scale(0.1 -0.1)">
       <use xlink:href="#DejaVuSans-69"/>
       <use x="63.183594" xlink:href="#DejaVuSans-83"/>
       <use x="126.660156" xlink:href="#DejaVuSans-84"/>
       <use x="187.634766" xlink:href="#DejaVuSans-65"/>
       <use x="256.042969" xlink:href="#DejaVuSans-66"/>
       <use x="324.646484" xlink:href="#DejaVuSans-69"/>
       <use x="387.830078" xlink:href="#DejaVuSans-76"/>
       <use x="443.542969" xlink:href="#DejaVuSans-69"/>
       <use x="506.726562" xlink:href="#DejaVuSans-67"/>
       <use x="576.550781" xlink:href="#DejaVuSans-73"/>
       <use x="606.042969" xlink:href="#DejaVuSans-77"/>
       <use x="692.322266" xlink:href="#DejaVuSans-69"/>
       <use x="755.505859" xlink:href="#DejaVuSans-78"/>
       <use x="830.310547" xlink:href="#DejaVuSans-84"/>
       <use x="891.394531" xlink:href="#DejaVuSans-79"/>
       <use x="970.105469" xlink:href="#DejaVuSans-32"/>
       <use x="1001.892578" xlink:href="#DejaVuSans-67"/>
       <use x="1071.716797" xlink:href="#DejaVuSans-79"/>
       <use x="1150.427734" xlink:href="#DejaVuSans-77"/>
       <use x="1236.707031" xlink:href="#DejaVuSans-69"/>
       <use x="1299.890625" xlink:href="#DejaVuSans-82"/>
       <use x="1369.294922" xlink:href="#DejaVuSans-67"/>
       <use x="1439.119141" xlink:href="#DejaVuSans-73"/>
       <use x="1468.611328" xlink:href="#DejaVuSans-65"/>
       <use x="1537.019531" xlink:href="#DejaVuSans-76"/>
      </g>
     </g>
    </g>
    <g id="ytick_5">
     <g id="line2d_11">
      <g>
       <use style="stroke:#000000;stroke-width:0.8;" x="185.632812" xlink:href="#mb83d5de03a" y="97.585817"/>
      </g>
     </g>
     <g id="text_12">
      <!-- CONDOMINIO COMERCIAL -->
      <defs>
       <path d="M 19.671875 64.796875 
L 19.671875 8.109375 
L 31.59375 8.109375 
Q 46.6875 8.109375 53.6875 14.9375 
Q 60.6875 21.78125 60.6875 36.53125 
Q 60.6875 51.171875 53.6875 57.984375 
Q 46.6875 64.796875 31.59375 64.796875 
z
M 9.8125 72.90625 
L 30.078125 72.90625 
Q 51.265625 72.90625 61.171875 64.09375 
Q 71.09375 55.28125 71.09375 36.53125 
Q 71.09375 17.671875 61.125 8.828125 
Q 51.171875 0 30.078125 0 
L 9.8125 0 
z
" id="DejaVuSans-68"/>
      </defs>
      <g transform="translate(48.578125 101.385036)scale(0.1 -0.1)">
       <use xlink:href="#DejaVuSans-67"/>
       <use x="69.824219" xlink:href="#DejaVuSans-79"/>
       <use x="148.535156" xlink:href="#DejaVuSans-78"/>
       <use x="223.339844" xlink:href="#DejaVuSans-68"/>
       <use x="300.341797" xlink:href="#DejaVuSans-79"/>
       <use x="379.052734" xlink:href="#DejaVuSans-77"/>
       <use x="465.332031" xlink:href="#DejaVuSans-73"/>
       <use x="494.824219" xlink:href="#DejaVuSans-78"/>
       <use x="569.628906" xlink:href="#DejaVuSans-73"/>
       <use x="599.121094" xlink:href="#DejaVuSans-79"/>
       <use x="677.832031" xlink:href="#DejaVuSans-32"/>
       <use x="709.619141" xlink:href="#DejaVuSans-67"/>
       <use x="779.443359" xlink:href="#DejaVuSans-79"/>
       <use x="858.154297" xlink:href="#DejaVuSans-77"/>
       <use x="944.433594" xlink:href="#DejaVuSans-69"/>
       <use x="1007.617188" xlink:href="#DejaVuSans-82"/>
       <use x="1077.021484" xlink:href="#DejaVuSans-67"/>
       <use x="1146.845703" xlink:href="#DejaVuSans-73"/>
       <use x="1176.337891" xlink:href="#DejaVuSans-65"/>
       <use x="1244.746094" xlink:href="#DejaVuSans-76"/>
      </g>
     </g>
    </g>
    <g id="ytick_6">
     <g id="line2d_12">
      <g>
       <use style="stroke:#000000;stroke-width:0.8;" x="185.632812" xlink:href="#mb83d5de03a" y="114.311971"/>
      </g>
     </g>
     <g id="text_13">
      <!-- ESTABELECIMENTO ENSINO -->
      <g transform="translate(39.9875 118.11119)scale(0.1 -0.1)">
       <use xlink:href="#DejaVuSans-69"/>
       <use x="63.183594" xlink:href="#DejaVuSans-83"/>
       <use x="126.660156" xlink:href="#DejaVuSans-84"/>
       <use x="187.634766" xlink:href="#DejaVuSans-65"/>
       <use x="256.042969" xlink:href="#DejaVuSans-66"/>
       <use x="324.646484" xlink:href="#DejaVuSans-69"/>
       <use x="387.830078" xlink:href="#DejaVuSans-76"/>
       <use x="443.542969" xlink:href="#DejaVuSans-69"/>
       <use x="506.726562" xlink:href="#DejaVuSans-67"/>
       <use x="576.550781" xlink:href="#DejaVuSans-73"/>
       <use x="606.042969" xlink:href="#DejaVuSans-77"/>
       <use x="692.322266" xlink:href="#DejaVuSans-69"/>
       <use x="755.505859" xlink:href="#DejaVuSans-78"/>
       <use x="830.310547" xlink:href="#DejaVuSans-84"/>
       <use x="891.394531" xlink:href="#DejaVuSans-79"/>
       <use x="970.105469" xlink:href="#DejaVuSans-32"/>
       <use x="1001.892578" xlink:href="#DejaVuSans-69"/>
       <use x="1065.076172" xlink:href="#DejaVuSans-78"/>
       <use x="1139.880859" xlink:href="#DejaVuSans-83"/>
       <use x="1203.357422" xlink:href="#DejaVuSans-73"/>
       <use x="1232.849609" xlink:href="#DejaVuSans-78"/>
       <use x="1307.654297" xlink:href="#DejaVuSans-79"/>
      </g>
     </g>
    </g>
    <g id="ytick_7">
     <g id="line2d_13">
      <g>
       <use style="stroke:#000000;stroke-width:0.8;" x="185.632812" xlink:href="#mb83d5de03a" y="131.038125"/>
      </g>
     </g>
     <g id="text_14">
      <!-- ESTABELECIMENTO-OUTROS -->
      <defs>
       <path d="M 4.890625 31.390625 
L 31.203125 31.390625 
L 31.203125 23.390625 
L 4.890625 23.390625 
z
" id="DejaVuSans-45"/>
      </defs>
      <g transform="translate(35.535937 134.837344)scale(0.1 -0.1)">
       <use xlink:href="#DejaVuSans-69"/>
       <use x="63.183594" xlink:href="#DejaVuSans-83"/>
       <use x="126.660156" xlink:href="#DejaVuSans-84"/>
       <use x="187.634766" xlink:href="#DejaVuSans-65"/>
       <use x="256.042969" xlink:href="#DejaVuSans-66"/>
       <use x="324.646484" xlink:href="#DejaVuSans-69"/>
       <use x="387.830078" xlink:href="#DejaVuSans-76"/>
       <use x="443.542969" xlink:href="#DejaVuSans-69"/>
       <use x="506.726562" xlink:href="#DejaVuSans-67"/>
       <use x="576.550781" xlink:href="#DejaVuSans-73"/>
       <use x="606.042969" xlink:href="#DejaVuSans-77"/>
       <use x="692.322266" xlink:href="#DejaVuSans-69"/>
       <use x="755.505859" xlink:href="#DejaVuSans-78"/>
       <use x="830.310547" xlink:href="#DejaVuSans-84"/>
       <use x="891.394531" xlink:href="#DejaVuSans-79"/>
       <use x="970.136719" xlink:href="#DejaVuSans-45"/>
       <use x="1006.251953" xlink:href="#DejaVuSans-79"/>
       <use x="1084.962891" xlink:href="#DejaVuSans-85"/>
       <use x="1158.15625" xlink:href="#DejaVuSans-84"/>
       <use x="1219.240234" xlink:href="#DejaVuSans-82"/>
       <use x="1288.722656" xlink:href="#DejaVuSans-79"/>
       <use x="1367.433594" xlink:href="#DejaVuSans-83"/>
      </g>
     </g>
    </g>
    <g id="ytick_8">
     <g id="line2d_14">
      <g>
       <use style="stroke:#000000;stroke-width:0.8;" x="185.632812" xlink:href="#mb83d5de03a" y="147.764279"/>
      </g>
     </g>
     <g id="text_15">
      <!-- INTERIOR ESTABELECIMENTO -->
      <g transform="translate(30.8625 151.563498)scale(0.1 -0.1)">
       <use xlink:href="#DejaVuSans-73"/>
       <use x="29.492188" xlink:href="#DejaVuSans-78"/>
       <use x="104.296875" xlink:href="#DejaVuSans-84"/>
       <use x="165.380859" xlink:href="#DejaVuSans-69"/>
       <use x="228.564453" xlink:href="#DejaVuSans-82"/>
       <use x="298.046875" xlink:href="#DejaVuSans-73"/>
       <use x="327.539062" xlink:href="#DejaVuSans-79"/>
       <use x="406.25" xlink:href="#DejaVuSans-82"/>
       <use x="475.732422" xlink:href="#DejaVuSans-32"/>
       <use x="507.519531" xlink:href="#DejaVuSans-69"/>
       <use x="570.703125" xlink:href="#DejaVuSans-83"/>
       <use x="634.179688" xlink:href="#DejaVuSans-84"/>
       <use x="695.154297" xlink:href="#DejaVuSans-65"/>
       <use x="763.5625" xlink:href="#DejaVuSans-66"/>
       <use x="832.166016" xlink:href="#DejaVuSans-69"/>
       <use x="895.349609" xlink:href="#DejaVuSans-76"/>
       <use x="951.0625" xlink:href="#DejaVuSans-69"/>
       <use x="1014.246094" xlink:href="#DejaVuSans-67"/>
       <use x="1084.070312" xlink:href="#DejaVuSans-73"/>
       <use x="1113.5625" xlink:href="#DejaVuSans-77"/>
       <use x="1199.841797" xlink:href="#DejaVuSans-69"/>
       <use x="1263.025391" xlink:href="#DejaVuSans-78"/>
       <use x="1337.830078" xlink:href="#DejaVuSans-84"/>
       <use x="1398.914062" xlink:href="#DejaVuSans-79"/>
      </g>
     </g>
    </g>
    <g id="ytick_9">
     <g id="line2d_15">
      <g>
       <use style="stroke:#000000;stroke-width:0.8;" x="185.632812" xlink:href="#mb83d5de03a" y="164.490433"/>
      </g>
     </g>
     <g id="text_16">
      <!-- INTERIOR DE VEICULO -->
      <g transform="translate(66.83125 168.289651)scale(0.1 -0.1)">
       <use xlink:href="#DejaVuSans-73"/>
       <use x="29.492188" xlink:href="#DejaVuSans-78"/>
       <use x="104.296875" xlink:href="#DejaVuSans-84"/>
       <use x="165.380859" xlink:href="#DejaVuSans-69"/>
       <use x="228.564453" xlink:href="#DejaVuSans-82"/>
       <use x="298.046875" xlink:href="#DejaVuSans-73"/>
       <use x="327.539062" xlink:href="#DejaVuSans-79"/>
       <use x="406.25" xlink:href="#DejaVuSans-82"/>
       <use x="475.732422" xlink:href="#DejaVuSans-32"/>
       <use x="507.519531" xlink:href="#DejaVuSans-68"/>
       <use x="584.521484" xlink:href="#DejaVuSans-69"/>
       <use x="647.705078" xlink:href="#DejaVuSans-32"/>
       <use x="679.492188" xlink:href="#DejaVuSans-86"/>
       <use x="747.900391" xlink:href="#DejaVuSans-69"/>
       <use x="811.083984" xlink:href="#DejaVuSans-73"/>
       <use x="840.576172" xlink:href="#DejaVuSans-67"/>
       <use x="910.400391" xlink:href="#DejaVuSans-85"/>
       <use x="983.59375" xlink:href="#DejaVuSans-76"/>
       <use x="1039.259766" xlink:href="#DejaVuSans-79"/>
      </g>
     </g>
    </g>
    <g id="ytick_10">
     <g id="line2d_16">
      <g>
       <use style="stroke:#000000;stroke-width:0.8;" x="185.632812" xlink:href="#mb83d5de03a" y="181.216587"/>
      </g>
     </g>
     <g id="text_17">
      <!-- COLETIVO -->
      <g transform="translate(128.11875 185.015805)scale(0.1 -0.1)">
       <use xlink:href="#DejaVuSans-67"/>
       <use x="69.824219" xlink:href="#DejaVuSans-79"/>
       <use x="148.535156" xlink:href="#DejaVuSans-76"/>
       <use x="204.248047" xlink:href="#DejaVuSans-69"/>
       <use x="267.431641" xlink:href="#DejaVuSans-84"/>
       <use x="328.515625" xlink:href="#DejaVuSans-73"/>
       <use x="358.007812" xlink:href="#DejaVuSans-86"/>
       <use x="426.400391" xlink:href="#DejaVuSans-79"/>
      </g>
     </g>
    </g>
    <g id="ytick_11">
     <g id="line2d_17">
      <g>
       <use style="stroke:#000000;stroke-width:0.8;" x="185.632812" xlink:href="#mb83d5de03a" y="197.94274"/>
      </g>
     </g>
     <g id="text_18">
      <!-- INTERIOR TRANSPORTE COLETIVO -->
      <defs>
       <path d="M 19.671875 64.796875 
L 19.671875 37.40625 
L 32.078125 37.40625 
Q 38.96875 37.40625 42.71875 40.96875 
Q 46.484375 44.53125 46.484375 51.125 
Q 46.484375 57.671875 42.71875 61.234375 
Q 38.96875 64.796875 32.078125 64.796875 
z
M 9.8125 72.90625 
L 32.078125 72.90625 
Q 44.34375 72.90625 50.609375 67.359375 
Q 56.890625 61.8125 56.890625 51.125 
Q 56.890625 40.328125 50.609375 34.8125 
Q 44.34375 29.296875 32.078125 29.296875 
L 19.671875 29.296875 
L 19.671875 0 
L 9.8125 0 
z
" id="DejaVuSans-80"/>
      </defs>
      <g transform="translate(7.2 201.741959)scale(0.1 -0.1)">
       <use xlink:href="#DejaVuSans-73"/>
       <use x="29.492188" xlink:href="#DejaVuSans-78"/>
       <use x="104.296875" xlink:href="#DejaVuSans-84"/>
       <use x="165.380859" xlink:href="#DejaVuSans-69"/>
       <use x="228.564453" xlink:href="#DejaVuSans-82"/>
       <use x="298.046875" xlink:href="#DejaVuSans-73"/>
       <use x="327.539062" xlink:href="#DejaVuSans-79"/>
       <use x="406.25" xlink:href="#DejaVuSans-82"/>
       <use x="475.732422" xlink:href="#DejaVuSans-32"/>
       <use x="507.519531" xlink:href="#DejaVuSans-84"/>
       <use x="568.603516" xlink:href="#DejaVuSans-82"/>
       <use x="638.023438" xlink:href="#DejaVuSans-65"/>
       <use x="706.431641" xlink:href="#DejaVuSans-78"/>
       <use x="781.236328" xlink:href="#DejaVuSans-83"/>
       <use x="844.712891" xlink:href="#DejaVuSans-80"/>
       <use x="905.015625" xlink:href="#DejaVuSans-79"/>
       <use x="983.726562" xlink:href="#DejaVuSans-82"/>
       <use x="1053.099609" xlink:href="#DejaVuSans-84"/>
       <use x="1114.183594" xlink:href="#DejaVuSans-69"/>
       <use x="1177.367188" xlink:href="#DejaVuSans-32"/>
       <use x="1209.154297" xlink:href="#DejaVuSans-67"/>
       <use x="1278.978516" xlink:href="#DejaVuSans-79"/>
       <use x="1357.689453" xlink:href="#DejaVuSans-76"/>
       <use x="1413.402344" xlink:href="#DejaVuSans-69"/>
       <use x="1476.585938" xlink:href="#DejaVuSans-84"/>
       <use x="1537.669922" xlink:href="#DejaVuSans-73"/>
       <use x="1567.162109" xlink:href="#DejaVuSans-86"/>
       <use x="1635.554688" xlink:href="#DejaVuSans-79"/>
      </g>
     </g>
    </g>
    <g id="ytick_12">
     <g id="line2d_18">
      <g>
       <use style="stroke:#000000;stroke-width:0.8;" x="185.632812" xlink:href="#mb83d5de03a" y="214.668894"/>
      </g>
     </g>
     <g id="text_19">
      <!-- SAIDINHA DE BANCO -->
      <defs>
       <path d="M 9.8125 72.90625 
L 19.671875 72.90625 
L 19.671875 43.015625 
L 55.515625 43.015625 
L 55.515625 72.90625 
L 65.375 72.90625 
L 65.375 0 
L 55.515625 0 
L 55.515625 34.71875 
L 19.671875 34.71875 
L 19.671875 0 
L 9.8125 0 
z
" id="DejaVuSans-72"/>
      </defs>
      <g transform="translate(73.5875 218.468113)scale(0.1 -0.1)">
       <use xlink:href="#DejaVuSans-83"/>
       <use x="63.492188" xlink:href="#DejaVuSans-65"/>
       <use x="131.900391" xlink:href="#DejaVuSans-73"/>
       <use x="161.392578" xlink:href="#DejaVuSans-68"/>
       <use x="238.394531" xlink:href="#DejaVuSans-73"/>
       <use x="267.886719" xlink:href="#DejaVuSans-78"/>
       <use x="342.691406" xlink:href="#DejaVuSans-72"/>
       <use x="417.886719" xlink:href="#DejaVuSans-65"/>
       <use x="486.294922" xlink:href="#DejaVuSans-32"/>
       <use x="518.082031" xlink:href="#DejaVuSans-68"/>
       <use x="595.083984" xlink:href="#DejaVuSans-69"/>
       <use x="658.267578" xlink:href="#DejaVuSans-32"/>
       <use x="690.054688" xlink:href="#DejaVuSans-66"/>
       <use x="758.658203" xlink:href="#DejaVuSans-65"/>
       <use x="827.066406" xlink:href="#DejaVuSans-78"/>
       <use x="901.871094" xlink:href="#DejaVuSans-67"/>
       <use x="971.695312" xlink:href="#DejaVuSans-79"/>
      </g>
     </g>
    </g>
    <g id="ytick_13">
     <g id="line2d_19">
      <g>
       <use style="stroke:#000000;stroke-width:0.8;" x="185.632812" xlink:href="#mb83d5de03a" y="231.395048"/>
      </g>
     </g>
     <g id="text_20">
      <!-- CAIXA ELETRÔNICO -->
      <defs>
       <path d="M 6.296875 72.90625 
L 16.890625 72.90625 
L 35.015625 45.796875 
L 53.21875 72.90625 
L 63.8125 72.90625 
L 40.375 37.890625 
L 65.375 0 
L 54.78125 0 
L 34.28125 31 
L 13.625 0 
L 2.984375 0 
L 29 38.921875 
z
" id="DejaVuSans-88"/>
       <path d="M 39.40625 66.21875 
Q 28.65625 66.21875 22.328125 58.203125 
Q 16.015625 50.203125 16.015625 36.375 
Q 16.015625 22.609375 22.328125 14.59375 
Q 28.65625 6.59375 39.40625 6.59375 
Q 50.140625 6.59375 56.421875 14.59375 
Q 62.703125 22.609375 62.703125 36.375 
Q 62.703125 50.203125 56.421875 58.203125 
Q 50.140625 66.21875 39.40625 66.21875 
z
M 39.40625 74.21875 
Q 54.734375 74.21875 63.90625 63.9375 
Q 73.09375 53.65625 73.09375 36.375 
Q 73.09375 19.140625 63.90625 8.859375 
Q 54.734375 -1.421875 39.40625 -1.421875 
Q 24.03125 -1.421875 14.8125 8.828125 
Q 5.609375 19.09375 5.609375 36.375 
Q 5.609375 53.65625 14.8125 63.9375 
Q 24.03125 74.21875 39.40625 74.21875 
z
M 34.8125 92.828125 
L 44 92.828125 
L 54.296875 79.84375 
L 47.515625 79.84375 
L 39.40625 88.53125 
L 31.296875 79.84375 
L 24.515625 79.84375 
z
" id="DejaVuSans-212"/>
      </defs>
      <g transform="translate(80.567187 235.194267)scale(0.1 -0.1)">
       <use xlink:href="#DejaVuSans-67"/>
       <use x="69.824219" xlink:href="#DejaVuSans-65"/>
       <use x="138.232422" xlink:href="#DejaVuSans-73"/>
       <use x="167.724609" xlink:href="#DejaVuSans-88"/>
       <use x="236.230469" xlink:href="#DejaVuSans-65"/>
       <use x="304.638672" xlink:href="#DejaVuSans-32"/>
       <use x="336.425781" xlink:href="#DejaVuSans-69"/>
       <use x="399.609375" xlink:href="#DejaVuSans-76"/>
       <use x="455.322266" xlink:href="#DejaVuSans-69"/>
       <use x="518.505859" xlink:href="#DejaVuSans-84"/>
       <use x="579.589844" xlink:href="#DejaVuSans-82"/>
       <use x="649.072266" xlink:href="#DejaVuSans-212"/>
       <use x="727.783203" xlink:href="#DejaVuSans-78"/>
       <use x="802.587891" xlink:href="#DejaVuSans-73"/>
       <use x="832.080078" xlink:href="#DejaVuSans-67"/>
       <use x="901.904297" xlink:href="#DejaVuSans-79"/>
      </g>
     </g>
    </g>
   </g>
   <g id="patch_29">
    <path d="M 185.632812 239.758125 
L 185.632812 22.318125 
" style="fill:none;stroke:#000000;stroke-linecap:square;stroke-linejoin:miter;stroke-width:0.8;"/>
   </g>
   <g id="patch_30">
    <path d="M 520.432812 239.758125 
L 520.432812 22.318125 
" style="fill:none;stroke:#000000;stroke-linecap:square;stroke-linejoin:miter;stroke-width:0.8;"/>
   </g>
   <g id="patch_31">
    <path d="M 185.632812 239.758125 
L 520.432812 239.758125 
" style="fill:none;stroke:#000000;stroke-linecap:square;stroke-linejoin:miter;stroke-width:0.8;"/>
   </g>
   <g id="patch_32">
    <path d="M 185.632812 22.318125 
L 520.432812 22.318125 
" style="fill:none;stroke:#000000;stroke-linecap:square;stroke-linejoin:miter;stroke-width:0.8;"/>
   </g>
   <g id="text_21">
    <!-- Crimes Occurences - after collecting geo-coordinates -->
    <defs>
     <path d="M 34.28125 27.484375 
Q 23.390625 27.484375 19.1875 25 
Q 14.984375 22.515625 14.984375 16.5 
Q 14.984375 11.71875 18.140625 8.90625 
Q 21.296875 6.109375 26.703125 6.109375 
Q 34.1875 6.109375 38.703125 11.40625 
Q 43.21875 16.703125 43.21875 25.484375 
L 43.21875 27.484375 
z
M 52.203125 31.203125 
L 52.203125 0 
L 43.21875 0 
L 43.21875 8.296875 
Q 40.140625 3.328125 35.546875 0.953125 
Q 30.953125 -1.421875 24.3125 -1.421875 
Q 15.921875 -1.421875 10.953125 3.296875 
Q 6 8.015625 6 15.921875 
Q 6 25.140625 12.171875 29.828125 
Q 18.359375 34.515625 30.609375 34.515625 
L 43.21875 34.515625 
L 43.21875 35.40625 
Q 43.21875 41.609375 39.140625 45 
Q 35.0625 48.390625 27.6875 48.390625 
Q 23 48.390625 18.546875 47.265625 
Q 14.109375 46.140625 10.015625 43.890625 
L 10.015625 52.203125 
Q 14.9375 54.109375 19.578125 55.046875 
Q 24.21875 56 28.609375 56 
Q 40.484375 56 46.34375 49.84375 
Q 52.203125 43.703125 52.203125 31.203125 
z
" id="DejaVuSans-97"/>
     <path d="M 37.109375 75.984375 
L 37.109375 68.5 
L 28.515625 68.5 
Q 23.6875 68.5 21.796875 66.546875 
Q 19.921875 64.59375 19.921875 59.515625 
L 19.921875 54.6875 
L 34.71875 54.6875 
L 34.71875 47.703125 
L 19.921875 47.703125 
L 19.921875 0 
L 10.890625 0 
L 10.890625 47.703125 
L 2.296875 47.703125 
L 2.296875 54.6875 
L 10.890625 54.6875 
L 10.890625 58.5 
Q 10.890625 67.625 15.140625 71.796875 
Q 19.390625 75.984375 28.609375 75.984375 
z
" id="DejaVuSans-102"/>
     <path d="M 18.3125 70.21875 
L 18.3125 54.6875 
L 36.8125 54.6875 
L 36.8125 47.703125 
L 18.3125 47.703125 
L 18.3125 18.015625 
Q 18.3125 11.328125 20.140625 9.421875 
Q 21.96875 7.515625 27.59375 7.515625 
L 36.8125 7.515625 
L 36.8125 0 
L 27.59375 0 
Q 17.1875 0 13.234375 3.875 
Q 9.28125 7.765625 9.28125 18.015625 
L 9.28125 47.703125 
L 2.6875 47.703125 
L 2.6875 54.6875 
L 9.28125 54.6875 
L 9.28125 70.21875 
z
" id="DejaVuSans-116"/>
     <path d="M 30.609375 48.390625 
Q 23.390625 48.390625 19.1875 42.75 
Q 14.984375 37.109375 14.984375 27.296875 
Q 14.984375 17.484375 19.15625 11.84375 
Q 23.34375 6.203125 30.609375 6.203125 
Q 37.796875 6.203125 41.984375 11.859375 
Q 46.1875 17.53125 46.1875 27.296875 
Q 46.1875 37.015625 41.984375 42.703125 
Q 37.796875 48.390625 30.609375 48.390625 
z
M 30.609375 56 
Q 42.328125 56 49.015625 48.375 
Q 55.71875 40.765625 55.71875 27.296875 
Q 55.71875 13.875 49.015625 6.21875 
Q 42.328125 -1.421875 30.609375 -1.421875 
Q 18.84375 -1.421875 12.171875 6.21875 
Q 5.515625 13.875 5.515625 27.296875 
Q 5.515625 40.765625 12.171875 48.375 
Q 18.84375 56 30.609375 56 
z
" id="DejaVuSans-111"/>
     <path d="M 9.421875 75.984375 
L 18.40625 75.984375 
L 18.40625 0 
L 9.421875 0 
z
" id="DejaVuSans-108"/>
     <path d="M 45.40625 27.984375 
Q 45.40625 37.75 41.375 43.109375 
Q 37.359375 48.484375 30.078125 48.484375 
Q 22.859375 48.484375 18.828125 43.109375 
Q 14.796875 37.75 14.796875 27.984375 
Q 14.796875 18.265625 18.828125 12.890625 
Q 22.859375 7.515625 30.078125 7.515625 
Q 37.359375 7.515625 41.375 12.890625 
Q 45.40625 18.265625 45.40625 27.984375 
z
M 54.390625 6.78125 
Q 54.390625 -7.171875 48.1875 -13.984375 
Q 42 -20.796875 29.203125 -20.796875 
Q 24.46875 -20.796875 20.265625 -20.09375 
Q 16.0625 -19.390625 12.109375 -17.921875 
L 12.109375 -9.1875 
Q 16.0625 -11.328125 19.921875 -12.34375 
Q 23.78125 -13.375 27.78125 -13.375 
Q 36.625 -13.375 41.015625 -8.765625 
Q 45.40625 -4.15625 45.40625 5.171875 
L 45.40625 9.625 
Q 42.625 4.78125 38.28125 2.390625 
Q 33.9375 0 27.875 0 
Q 17.828125 0 11.671875 7.65625 
Q 5.515625 15.328125 5.515625 27.984375 
Q 5.515625 40.671875 11.671875 48.328125 
Q 17.828125 56 27.875 56 
Q 33.9375 56 38.28125 53.609375 
Q 42.625 51.21875 45.40625 46.390625 
L 45.40625 54.6875 
L 54.390625 54.6875 
z
" id="DejaVuSans-103"/>
     <path d="M 45.40625 46.390625 
L 45.40625 75.984375 
L 54.390625 75.984375 
L 54.390625 0 
L 45.40625 0 
L 45.40625 8.203125 
Q 42.578125 3.328125 38.25 0.953125 
Q 33.9375 -1.421875 27.875 -1.421875 
Q 17.96875 -1.421875 11.734375 6.484375 
Q 5.515625 14.40625 5.515625 27.296875 
Q 5.515625 40.1875 11.734375 48.09375 
Q 17.96875 56 27.875 56 
Q 33.9375 56 38.25 53.625 
Q 42.578125 51.265625 45.40625 46.390625 
z
M 14.796875 27.296875 
Q 14.796875 17.390625 18.875 11.75 
Q 22.953125 6.109375 30.078125 6.109375 
Q 37.203125 6.109375 41.296875 11.75 
Q 45.40625 17.390625 45.40625 27.296875 
Q 45.40625 37.203125 41.296875 42.84375 
Q 37.203125 48.484375 30.078125 48.484375 
Q 22.953125 48.484375 18.875 42.84375 
Q 14.796875 37.203125 14.796875 27.296875 
z
" id="DejaVuSans-100"/>
    </defs>
    <g transform="translate(193.355 16.318125)scale(0.12 -0.12)">
     <use xlink:href="#DejaVuSans-67"/>
     <use x="69.824219" xlink:href="#DejaVuSans-114"/>
     <use x="110.9375" xlink:href="#DejaVuSans-105"/>
     <use x="138.720703" xlink:href="#DejaVuSans-109"/>
     <use x="236.132812" xlink:href="#DejaVuSans-101"/>
     <use x="297.65625" xlink:href="#DejaVuSans-115"/>
     <use x="349.755859" xlink:href="#DejaVuSans-32"/>
     <use x="381.542969" xlink:href="#DejaVuSans-79"/>
     <use x="460.253906" xlink:href="#DejaVuSans-99"/>
     <use x="515.234375" xlink:href="#DejaVuSans-99"/>
     <use x="570.214844" xlink:href="#DejaVuSans-117"/>
     <use x="633.59375" xlink:href="#DejaVuSans-114"/>
     <use x="674.675781" xlink:href="#DejaVuSans-101"/>
     <use x="736.199219" xlink:href="#DejaVuSans-110"/>
     <use x="799.578125" xlink:href="#DejaVuSans-99"/>
     <use x="854.558594" xlink:href="#DejaVuSans-101"/>
     <use x="916.082031" xlink:href="#DejaVuSans-115"/>
     <use x="968.181641" xlink:href="#DejaVuSans-32"/>
     <use x="999.96875" xlink:href="#DejaVuSans-45"/>
     <use x="1036.052734" xlink:href="#DejaVuSans-32"/>
     <use x="1067.839844" xlink:href="#DejaVuSans-97"/>
     <use x="1129.119141" xlink:href="#DejaVuSans-102"/>
     <use x="1164.308594" xlink:href="#DejaVuSans-116"/>
     <use x="1203.517578" xlink:href="#DejaVuSans-101"/>
     <use x="1265.041016" xlink:href="#DejaVuSans-114"/>
     <use x="1306.154297" xlink:href="#DejaVuSans-32"/>
     <use x="1337.941406" xlink:href="#DejaVuSans-99"/>
     <use x="1392.921875" xlink:href="#DejaVuSans-111"/>
     <use x="1454.103516" xlink:href="#DejaVuSans-108"/>
     <use x="1481.886719" xlink:href="#DejaVuSans-108"/>
     <use x="1509.669922" xlink:href="#DejaVuSans-101"/>
     <use x="1571.193359" xlink:href="#DejaVuSans-99"/>
     <use x="1626.173828" xlink:href="#DejaVuSans-116"/>
     <use x="1665.382812" xlink:href="#DejaVuSans-105"/>
     <use x="1693.166016" xlink:href="#DejaVuSans-110"/>
     <use x="1756.544922" xlink:href="#DejaVuSans-103"/>
     <use x="1820.021484" xlink:href="#DejaVuSans-32"/>
     <use x="1851.808594" xlink:href="#DejaVuSans-103"/>
     <use x="1915.285156" xlink:href="#DejaVuSans-101"/>
     <use x="1976.808594" xlink:href="#DejaVuSans-111"/>
     <use x="2038.005859" xlink:href="#DejaVuSans-45"/>
     <use x="2074.089844" xlink:href="#DejaVuSans-99"/>
     <use x="2129.070312" xlink:href="#DejaVuSans-111"/>
     <use x="2190.251953" xlink:href="#DejaVuSans-111"/>
     <use x="2251.433594" xlink:href="#DejaVuSans-114"/>
     <use x="2292.53125" xlink:href="#DejaVuSans-100"/>
     <use x="2356.007812" xlink:href="#DejaVuSans-105"/>
     <use x="2383.791016" xlink:href="#DejaVuSans-110"/>
     <use x="2447.169922" xlink:href="#DejaVuSans-97"/>
     <use x="2508.449219" xlink:href="#DejaVuSans-116"/>
     <use x="2547.658203" xlink:href="#DejaVuSans-101"/>
     <use x="2609.181641" xlink:href="#DejaVuSans-115"/>
    </g>
   </g>
   <g id="legend_1">
    <g id="patch_33">
     <path d="M 539.172812 54.674375 
L 697.482188 54.674375 
Q 699.482188 54.674375 699.482188 52.674375 
L 699.482188 24.318125 
Q 699.482188 22.318125 697.482188 22.318125 
L 539.172812 22.318125 
Q 537.172812 22.318125 537.172812 24.318125 
L 537.172812 52.674375 
Q 537.172812 54.674375 539.172812 54.674375 
z
" style="fill:#ffffff;opacity:0.8;stroke:#cccccc;stroke-linejoin:miter;"/>
    </g>
    <g id="patch_34">
     <path d="M 541.172812 33.916562 
L 561.172812 33.916562 
L 561.172812 26.916562 
L 541.172812 26.916562 
z
" style="fill:#3274a1;"/>
    </g>
    <g id="text_22">
     <!-- With Geo-Coordinates -->
     <defs>
      <path d="M 3.328125 72.90625 
L 13.28125 72.90625 
L 28.609375 11.28125 
L 43.890625 72.90625 
L 54.984375 72.90625 
L 70.3125 11.28125 
L 85.59375 72.90625 
L 95.609375 72.90625 
L 77.296875 0 
L 64.890625 0 
L 49.515625 63.28125 
L 33.984375 0 
L 21.578125 0 
z
" id="DejaVuSans-87"/>
      <path d="M 54.890625 33.015625 
L 54.890625 0 
L 45.90625 0 
L 45.90625 32.71875 
Q 45.90625 40.484375 42.875 44.328125 
Q 39.84375 48.1875 33.796875 48.1875 
Q 26.515625 48.1875 22.3125 43.546875 
Q 18.109375 38.921875 18.109375 30.90625 
L 18.109375 0 
L 9.078125 0 
L 9.078125 75.984375 
L 18.109375 75.984375 
L 18.109375 46.1875 
Q 21.34375 51.125 25.703125 53.5625 
Q 30.078125 56 35.796875 56 
Q 45.21875 56 50.046875 50.171875 
Q 54.890625 44.34375 54.890625 33.015625 
z
" id="DejaVuSans-104"/>
      <path d="M 59.515625 10.40625 
L 59.515625 29.984375 
L 43.40625 29.984375 
L 43.40625 38.09375 
L 69.28125 38.09375 
L 69.28125 6.78125 
Q 63.578125 2.734375 56.6875 0.65625 
Q 49.8125 -1.421875 42 -1.421875 
Q 24.90625 -1.421875 15.25 8.5625 
Q 5.609375 18.5625 5.609375 36.375 
Q 5.609375 54.25 15.25 64.234375 
Q 24.90625 74.21875 42 74.21875 
Q 49.125 74.21875 55.546875 72.453125 
Q 61.96875 70.703125 67.390625 67.28125 
L 67.390625 56.78125 
Q 61.921875 61.421875 55.765625 63.765625 
Q 49.609375 66.109375 42.828125 66.109375 
Q 29.4375 66.109375 22.71875 58.640625 
Q 16.015625 51.171875 16.015625 36.375 
Q 16.015625 21.625 22.71875 14.15625 
Q 29.4375 6.6875 42.828125 6.6875 
Q 48.046875 6.6875 52.140625 7.59375 
Q 56.25 8.5 59.515625 10.40625 
z
" id="DejaVuSans-71"/>
     </defs>
     <g transform="translate(569.172812 33.916562)scale(0.1 -0.1)">
      <use xlink:href="#DejaVuSans-87"/>
      <use x="98.845703" xlink:href="#DejaVuSans-105"/>
      <use x="126.628906" xlink:href="#DejaVuSans-116"/>
      <use x="165.837891" xlink:href="#DejaVuSans-104"/>
      <use x="229.216797" xlink:href="#DejaVuSans-32"/>
      <use x="261.003906" xlink:href="#DejaVuSans-71"/>
      <use x="338.494141" xlink:href="#DejaVuSans-101"/>
      <use x="400.017578" xlink:href="#DejaVuSans-111"/>
      <use x="461.214844" xlink:href="#DejaVuSans-45"/>
      <use x="497.298828" xlink:href="#DejaVuSans-67"/>
      <use x="567.123047" xlink:href="#DejaVuSans-111"/>
      <use x="628.304688" xlink:href="#DejaVuSans-111"/>
      <use x="689.486328" xlink:href="#DejaVuSans-114"/>
      <use x="730.583984" xlink:href="#DejaVuSans-100"/>
      <use x="794.060547" xlink:href="#DejaVuSans-105"/>
      <use x="821.84375" xlink:href="#DejaVuSans-110"/>
      <use x="885.222656" xlink:href="#DejaVuSans-97"/>
      <use x="946.501953" xlink:href="#DejaVuSans-116"/>
      <use x="985.710938" xlink:href="#DejaVuSans-101"/>
      <use x="1047.234375" xlink:href="#DejaVuSans-115"/>
     </g>
    </g>
    <g id="patch_35">
     <path d="M 541.172812 48.594687 
L 561.172812 48.594687 
L 561.172812 41.594687 
L 541.172812 41.594687 
z
" style="fill:#e1812c;"/>
    </g>
    <g id="text_23">
     <!-- Without Geo-Coordinates -->
     <g transform="translate(569.172812 48.594687)scale(0.1 -0.1)">
      <use xlink:href="#DejaVuSans-87"/>
      <use x="98.845703" xlink:href="#DejaVuSans-105"/>
      <use x="126.628906" xlink:href="#DejaVuSans-116"/>
      <use x="165.837891" xlink:href="#DejaVuSans-104"/>
      <use x="229.216797" xlink:href="#DejaVuSans-111"/>
      <use x="290.398438" xlink:href="#DejaVuSans-117"/>
      <use x="353.777344" xlink:href="#DejaVuSans-116"/>
      <use x="392.986328" xlink:href="#DejaVuSans-32"/>
      <use x="424.773438" xlink:href="#DejaVuSans-71"/>
      <use x="502.263672" xlink:href="#DejaVuSans-101"/>
      <use x="563.787109" xlink:href="#DejaVuSans-111"/>
      <use x="624.984375" xlink:href="#DejaVuSans-45"/>
      <use x="661.068359" xlink:href="#DejaVuSans-67"/>
      <use x="730.892578" xlink:href="#DejaVuSans-111"/>
      <use x="792.074219" xlink:href="#DejaVuSans-111"/>
      <use x="853.255859" xlink:href="#DejaVuSans-114"/>
      <use x="894.353516" xlink:href="#DejaVuSans-100"/>
      <use x="957.830078" xlink:href="#DejaVuSans-105"/>
      <use x="985.613281" xlink:href="#DejaVuSans-110"/>
      <use x="1048.992188" xlink:href="#DejaVuSans-97"/>
      <use x="1110.271484" xlink:href="#DejaVuSans-116"/>
      <use x="1149.480469" xlink:href="#DejaVuSans-101"/>
      <use x="1211.003906" xlink:href="#DejaVuSans-115"/>
     </g>
    </g>
   </g>
  </g>
 </g>
 <defs>
  <clipPath id="p67005bba36">
   <rect height="217.44" width="334.8" x="185.632812" y="22.318125"/>
  </clipPath>
 </defs>
</svg>
